<svg xmlns="http://www.w3.org/2000/svg" version="1.1" xmlns:xlink="http://www.w3.org/1999/xlink" xmlns:svgjs="http://svgjs.com/svgjs" width="1409" height="538" preserveAspectRatio="none" viewBox="0 0 1409 538"><g mask="url(&quot;#SvgjsMask1513&quot;)" fill="none"><rect width="1409" height="538" x="0" y="0" fill="rgba(228, 251, 255, 1)"></rect><use xlink:href="#SvgjsSymbol1520" x="0" y="0"></use><use xlink:href="#SvgjsSymbol1520" x="720" y="0"></use></g><defs><mask id="SvgjsMask1513"><rect width="1409" height="538" fill="#ffffff"></rect></mask><path d="M-1 0 a1 1 0 1 0 2 0 a1 1 0 1 0 -2 0z" id="SvgjsPath1518"></path><path d="M-3 0 a3 3 0 1 0 6 0 a3 3 0 1 0 -6 0z" id="SvgjsPath1516"></path><path d="M-5 0 a5 5 0 1 0 10 0 a5 5 0 1 0 -10 0z" id="SvgjsPath1517"></path><path d="M2 -2 L-2 2z" id="SvgjsPath1514"></path><path d="M6 -6 L-6 6z" id="SvgjsPath1515"></path><path d="M30 -30 L-30 30z" id="SvgjsPath1519"></path></defs><symbol id="SvgjsSymbol1520"><use xlink:href="#SvgjsPath1514" x="30" y="30" stroke="rgba(179, 241, 253, 1)"></use><use xlink:href="#SvgjsPath1515" x="30" y="90" stroke="rgba(179, 241, 253, 1)"></use><use xlink:href="#SvgjsPath1516" x="30" y="150" stroke="rgba(179, 241, 253, 1)"></use><use xlink:href="#SvgjsPath1515" x="30" y="210" stroke="rgba(179, 241, 253, 1)"></use><use xlink:href="#SvgjsPath1515" x="30" y="270" stroke="rgba(179, 241, 253, 1)"></use><use xlink:href="#SvgjsPath1514" x="30" y="330" stroke="rgba(179, 241, 253, 1)"></use><use xlink:href="#SvgjsPath1515" x="30" y="390" stroke="rgba(179, 241, 253, 1)"></use><use xlink:href="#SvgjsPath1516" x="30" y="450" stroke="rgba(179, 241, 253, 1)"></use><use xlink:href="#SvgjsPath1517" x="30" y="510" stroke="rgba(179, 241, 253, 1)"></use><use xlink:href="#SvgjsPath1517" x="90" y="30" stroke="rgba(179, 241, 253, 1)"></use><use xlink:href="#SvgjsPath1515" x="90" y="90" stroke="rgba(179, 241, 253, 1)"></use><use xlink:href="#SvgjsPath1517" x="90" y="150" stroke="rgba(179, 241, 253, 1)"></use><use xlink:href="#SvgjsPath1517" x="90" y="210" stroke="rgba(179, 241, 253, 1)"></use><use xlink:href="#SvgjsPath1517" x="90" y="270" stroke="rgba(179, 241, 253, 1)"></use><use xlink:href="#SvgjsPath1515" x="90" y="330" stroke="rgba(179, 241, 253, 1)"></use><use xlink:href="#SvgjsPath1515" x="90" y="390" stroke="rgba(179, 241, 253, 1)"></use><use xlink:href="#SvgjsPath1517" x="90" y="450" stroke="rgba(179, 241, 253, 1)"></use><use xlink:href="#SvgjsPath1514" x="90" y="510" stroke="rgba(179, 241, 253, 1)"></use><use xlink:href="#SvgjsPath1516" x="150" y="30" stroke="rgba(179, 241, 253, 1)"></use><use xlink:href="#SvgjsPath1514" x="150" y="90" stroke="rgba(179, 241, 253, 1)"></use><use xlink:href="#SvgjsPath1514" x="150" y="150" stroke="rgba(179, 241, 253, 1)"></use><use xlink:href="#SvgjsPath1515" x="150" y="210" stroke="rgba(179, 241, 253, 1)"></use><use xlink:href="#SvgjsPath1515" x="150" y="270" stroke="rgba(179, 241, 253, 1)"></use><use xlink:href="#SvgjsPath1516" x="150" y="330" stroke="rgba(179, 241, 253, 1)"></use><use xlink:href="#SvgjsPath1518" x="150" y="390" stroke="rgba(179, 241, 253, 1)"></use><use xlink:href="#SvgjsPath1516" x="150" y="450" stroke="rgba(179, 241, 253, 1)"></use><use xlink:href="#SvgjsPath1518" x="150" y="510" stroke="rgba(179, 241, 253, 1)"></use><use xlink:href="#SvgjsPath1515" x="210" y="30" stroke="rgba(179, 241, 253, 1)"></use><use xlink:href="#SvgjsPath1515" x="210" y="90" stroke="rgba(179, 241, 253, 1)"></use><use xlink:href="#SvgjsPath1515" x="210" y="150" stroke="rgba(179, 241, 253, 1)"></use><use xlink:href="#SvgjsPath1515" x="210" y="210" stroke="rgba(179, 241, 253, 1)"></use><use xlink:href="#SvgjsPath1519" x="210" y="270" stroke="rgba(179, 241, 253, 1)" stroke-width="3"></use><use xlink:href="#SvgjsPath1514" x="210" y="330" stroke="rgba(179, 241, 253, 1)"></use><use xlink:href="#SvgjsPath1514" x="210" y="390" stroke="rgba(179, 241, 253, 1)"></use><use xlink:href="#SvgjsPath1515" x="210" y="450" stroke="rgba(179, 241, 253, 1)"></use><use xlink:href="#SvgjsPath1514" x="210" y="510" stroke="rgba(179, 241, 253, 1)"></use><use xlink:href="#SvgjsPath1516" x="270" y="30" stroke="rgba(179, 241, 253, 1)"></use><use xlink:href="#SvgjsPath1518" x="270" y="90" stroke="rgba(179, 241, 253, 1)"></use><use xlink:href="#SvgjsPath1517" x="270" y="150" stroke="rgba(179, 241, 253, 1)"></use><use xlink:href="#SvgjsPath1515" x="270" y="210" stroke="rgba(179, 241, 253, 1)"></use><use xlink:href="#SvgjsPath1515" x="270" y="270" stroke="rgba(179, 241, 253, 1)"></use><use xlink:href="#SvgjsPath1517" x="270" y="330" stroke="rgba(179, 241, 253, 1)"></use><use xlink:href="#SvgjsPath1515" x="270" y="390" stroke="rgba(179, 241, 253, 1)"></use><use xlink:href="#SvgjsPath1519" x="270" y="450" stroke="rgba(179, 241, 253, 1)" stroke-width="3"></use><use xlink:href="#SvgjsPath1514" x="270" y="510" stroke="rgba(179, 241, 253, 1)"></use><use xlink:href="#SvgjsPath1518" x="330" y="30" stroke="rgba(179, 241, 253, 1)"></use><use xlink:href="#SvgjsPath1515" x="330" y="90" stroke="rgba(179, 241, 253, 1)"></use><use xlink:href="#SvgjsPath1515" x="330" y="150" stroke="rgba(179, 241, 253, 1)"></use><use xlink:href="#SvgjsPath1518" x="330" y="210" stroke="rgba(179, 241, 253, 1)"></use><use xlink:href="#SvgjsPath1515" x="330" y="270" stroke="rgba(179, 241, 253, 1)"></use><use xlink:href="#SvgjsPath1515" x="330" y="330" stroke="rgba(179, 241, 253, 1)"></use><use xlink:href="#SvgjsPath1518" x="330" y="390" stroke="rgba(179, 241, 253, 1)"></use><use xlink:href="#SvgjsPath1517" x="330" y="450" stroke="rgba(179, 241, 253, 1)"></use><use xlink:href="#SvgjsPath1514" x="330" y="510" stroke="rgba(179, 241, 253, 1)"></use><use xlink:href="#SvgjsPath1515" x="390" y="30" stroke="rgba(179, 241, 253, 1)"></use><use xlink:href="#SvgjsPath1515" x="390" y="90" stroke="rgba(179, 241, 253, 1)"></use><use xlink:href="#SvgjsPath1515" x="390" y="150" stroke="rgba(179, 241, 253, 1)"></use><use xlink:href="#SvgjsPath1516" x="390" y="210" stroke="rgba(179, 241, 253, 1)"></use><use xlink:href="#SvgjsPath1514" x="390" y="270" stroke="rgba(179, 241, 253, 1)"></use><use xlink:href="#SvgjsPath1517" x="390" y="330" stroke="rgba(179, 241, 253, 1)"></use><use xlink:href="#SvgjsPath1517" x="390" y="390" stroke="rgba(179, 241, 253, 1)"></use><use xlink:href="#SvgjsPath1516" x="390" y="450" stroke="rgba(179, 241, 253, 1)"></use><use xlink:href="#SvgjsPath1515" x="390" y="510" stroke="rgba(179, 241, 253, 1)"></use><use xlink:href="#SvgjsPath1515" x="450" y="30" stroke="rgba(179, 241, 253, 1)"></use><use xlink:href="#SvgjsPath1515" x="450" y="90" stroke="rgba(179, 241, 253, 1)"></use><use xlink:href="#SvgjsPath1517" x="450" y="150" stroke="rgba(179, 241, 253, 1)"></use><use xlink:href="#SvgjsPath1517" x="450" y="210" stroke="rgba(179, 241, 253, 1)"></use><use xlink:href="#SvgjsPath1515" x="450" y="270" stroke="rgba(179, 241, 253, 1)"></use><use xlink:href="#SvgjsPath1517" x="450" y="330" stroke="rgba(179, 241, 253, 1)"></use><use xlink:href="#SvgjsPath1518" x="450" y="390" stroke="rgba(179, 241, 253, 1)"></use><use xlink:href="#SvgjsPath1515" x="450" y="450" stroke="rgba(179, 241, 253, 1)"></use><use xlink:href="#SvgjsPath1517" x="450" y="510" stroke="rgba(179, 241, 253, 1)"></use><use xlink:href="#SvgjsPath1515" x="510" y="30" stroke="rgba(179, 241, 253, 1)"></use><use xlink:href="#SvgjsPath1517" x="510" y="90" stroke="rgba(179, 241, 253, 1)"></use><use xlink:href="#SvgjsPath1514" x="510" y="150" stroke="rgba(179, 241, 253, 1)"></use><use xlink:href="#SvgjsPath1517" x="510" y="210" stroke="rgba(179, 241, 253, 1)"></use><use xlink:href="#SvgjsPath1514" x="510" y="270" stroke="rgba(179, 241, 253, 1)"></use><use xlink:href="#SvgjsPath1515" x="510" y="330" stroke="rgba(179, 241, 253, 1)"></use><use xlink:href="#SvgjsPath1517" x="510" y="390" stroke="rgba(179, 241, 253, 1)"></use><use xlink:href="#SvgjsPath1517" x="510" y="450" stroke="rgba(179, 241, 253, 1)"></use><use xlink:href="#SvgjsPath1515" x="510" y="510" stroke="rgba(179, 241, 253, 1)"></use><use xlink:href="#SvgjsPath1518" x="570" y="30" stroke="rgba(179, 241, 253, 1)"></use><use xlink:href="#SvgjsPath1517" x="570" y="90" stroke="rgba(179, 241, 253, 1)"></use><use xlink:href="#SvgjsPath1519" x="570" y="150" stroke="rgba(179, 241, 253, 1)" stroke-width="3"></use><use xlink:href="#SvgjsPath1514" x="570" y="210" stroke="rgba(179, 241, 253, 1)"></use><use xlink:href="#SvgjsPath1517" x="570" y="270" stroke="rgba(179, 241, 253, 1)"></use><use xlink:href="#SvgjsPath1517" x="570" y="330" stroke="rgba(179, 241, 253, 1)"></use><use xlink:href="#SvgjsPath1518" x="570" y="390" stroke="rgba(179, 241, 253, 1)"></use><use xlink:href="#SvgjsPath1517" x="570" y="450" stroke="rgba(179, 241, 253, 1)"></use><use xlink:href="#SvgjsPath1515" x="570" y="510" stroke="rgba(179, 241, 253, 1)"></use><use xlink:href="#SvgjsPath1515" x="630" y="30" stroke="rgba(179, 241, 253, 1)"></use><use xlink:href="#SvgjsPath1517" x="630" y="90" stroke="rgba(179, 241, 253, 1)"></use><use xlink:href="#SvgjsPath1515" x="630" y="150" stroke="rgba(179, 241, 253, 1)"></use><use xlink:href="#SvgjsPath1518" x="630" y="210" stroke="rgba(179, 241, 253, 1)"></use><use xlink:href="#SvgjsPath1514" x="630" y="270" stroke="rgba(179, 241, 253, 1)"></use><use xlink:href="#SvgjsPath1517" x="630" y="330" stroke="rgba(179, 241, 253, 1)"></use><use xlink:href="#SvgjsPath1514" x="630" y="390" stroke="rgba(179, 241, 253, 1)"></use><use xlink:href="#SvgjsPath1514" x="630" y="450" stroke="rgba(179, 241, 253, 1)"></use><use xlink:href="#SvgjsPath1518" x="630" y="510" stroke="rgba(179, 241, 253, 1)"></use><use xlink:href="#SvgjsPath1515" x="690" y="30" stroke="rgba(179, 241, 253, 1)"></use><use xlink:href="#SvgjsPath1515" x="690" y="90" stroke="rgba(179, 241, 253, 1)"></use><use xlink:href="#SvgjsPath1514" x="690" y="150" stroke="rgba(179, 241, 253, 1)"></use><use xlink:href="#SvgjsPath1519" x="690" y="210" stroke="rgba(179, 241, 253, 1)" stroke-width="3"></use><use xlink:href="#SvgjsPath1517" x="690" y="270" stroke="rgba(179, 241, 253, 1)"></use><use xlink:href="#SvgjsPath1518" x="690" y="330" stroke="rgba(179, 241, 253, 1)"></use><use xlink:href="#SvgjsPath1515" x="690" y="390" stroke="rgba(179, 241, 253, 1)"></use><use xlink:href="#SvgjsPath1515" x="690" y="450" stroke="rgba(179, 241, 253, 1)"></use><use xlink:href="#SvgjsPath1517" x="690" y="510" stroke="rgba(179, 241, 253, 1)"></use></symbol></svg>